<svg width="76" height="51" viewBox="0 0 76 51" fill="none" xmlns="http://www.w3.org/2000/svg">
<path d="M21.8915 32.84L23.9075 32.516V18.404L21.6035 17.756V15.272L27.5795 14.516L28.0115 14.804L28.5515 15.992V17.504C29.3435 16.736 30.4715 16.064 31.9355 15.488C33.4235 14.888 34.7075 14.588 35.7875 14.588C37.0835 14.588 38.1275 14.804 38.9195 15.236C39.7355 15.668 40.3475 16.34 40.7555 17.252C41.5475 16.532 42.5915 15.908 43.8875 15.38C45.1835 14.852 46.4555 14.588 47.7035 14.588C49.8395 14.588 51.3515 15.212 52.2395 16.46C53.1275 17.708 53.5715 19.748 53.5715 22.58V32.516L55.9115 32.84V35H46.5875V32.84L48.4595 32.516V22.724C48.4595 20.852 48.2315 19.544 47.7755 18.8C47.3435 18.032 46.5035 17.648 45.2555 17.648C44.5835 17.648 43.8875 17.804 43.1675 18.116C42.4715 18.404 41.8475 18.764 41.2955 19.196C41.4635 20.108 41.5475 21.248 41.5475 22.616V32.516L43.7795 32.84V35H34.3835V32.84L36.3635 32.516V22.616C36.3635 21.368 36.2795 20.396 36.1115 19.7C35.9675 18.98 35.6795 18.464 35.2475 18.152C34.8155 17.816 34.1915 17.648 33.3755 17.648C32.6075 17.648 31.8395 17.828 31.0715 18.188C30.3275 18.524 29.6555 18.932 29.0555 19.412V32.516L31.1795 32.84V35H21.8915V32.84Z" fill="#E18847"/>
<path d="M0.952906 43.152L0.360906 43.048V42.616L1.84091 42.44H1.85691L2.07291 42.592V48.456L2.65691 48.52V49H0.392906V48.52L0.952906 48.448V43.152ZM4.15966 43.824C3.96766 43.824 3.81566 43.768 3.70366 43.656C3.59166 43.544 3.53566 43.4 3.53566 43.224C3.53566 43.0213 3.59966 42.8533 3.72766 42.72C3.85566 42.5867 4.02632 42.52 4.23966 42.52C4.45299 42.52 4.61566 42.5787 4.72766 42.696C4.83966 42.808 4.89566 42.9493 4.89566 43.12C4.89566 43.3333 4.83166 43.504 4.70366 43.632C4.57566 43.76 4.39699 43.824 4.16766 43.824H4.15966ZM3.73566 45.312L3.16766 45.16V44.624L4.63166 44.448H4.64766L4.87166 44.608V48.456L5.40766 48.52V49H3.17566V48.52L3.73566 48.448V45.312ZM5.57309 44.552H7.68509V45.016L7.15709 45.12L7.88509 47.296L8.14109 48.144L8.35709 47.32L9.06909 45.12L8.56509 45.016V44.552H10.3251V45.016L9.90909 45.12L8.42109 49.064H7.49309L5.90109 45.12L5.57309 45.016V44.552ZM12.5674 49.088C11.8634 49.088 11.3381 48.8827 10.9914 48.472C10.6501 48.056 10.4794 47.4907 10.4794 46.776C10.4794 46.296 10.5674 45.88 10.7434 45.528C10.9247 45.176 11.1781 44.9067 11.5034 44.72C11.8287 44.5333 12.2047 44.44 12.6314 44.44C13.1647 44.44 13.5754 44.5813 13.8634 44.864C14.1514 45.1413 14.3007 45.5387 14.3114 46.056C14.3114 46.408 14.2901 46.6693 14.2474 46.84H11.6474C11.6687 47.3253 11.7834 47.704 11.9914 47.976C12.1994 48.2427 12.4954 48.376 12.8794 48.376C13.0874 48.376 13.3007 48.3413 13.5194 48.272C13.7434 48.2027 13.9194 48.12 14.0474 48.024L14.2474 48.464C14.1034 48.6187 13.8687 48.7627 13.5434 48.896C13.2234 49.024 12.8981 49.088 12.5674 49.088ZM13.1914 46.36C13.2021 46.2107 13.2074 46.096 13.2074 46.016C13.2074 45.3067 12.9701 44.952 12.4954 44.952C12.2341 44.952 12.0314 45.056 11.8874 45.264C11.7434 45.472 11.6634 45.8373 11.6474 46.36H13.1914ZM17.8003 43.824C17.6083 43.824 17.4563 43.768 17.3443 43.656C17.2323 43.544 17.1763 43.4 17.1763 43.224C17.1763 43.0213 17.2403 42.8533 17.3683 42.72C17.4963 42.5867 17.6669 42.52 17.8803 42.52C18.0936 42.52 18.2563 42.5787 18.3683 42.696C18.4803 42.808 18.5363 42.9493 18.5363 43.12C18.5363 43.3333 18.4723 43.504 18.3443 43.632C18.2163 43.76 18.0376 43.824 17.8083 43.824H17.8003ZM17.3763 45.312L16.8083 45.16V44.624L18.2723 44.448H18.2883L18.5123 44.608V48.456L19.0483 48.52V49H16.8163V48.52L17.3763 48.448V45.312ZM20.0697 45.312L19.5577 45.168V44.616L20.8857 44.448H20.9097L21.1097 44.608V44.92L21.1017 45.112C21.2884 44.936 21.5311 44.784 21.8297 44.656C22.1284 44.528 22.4297 44.464 22.7337 44.464C23.0591 44.464 23.3124 44.5253 23.4937 44.648C23.6804 44.7653 23.8137 44.952 23.8937 45.208C23.9737 45.464 24.0137 45.8107 24.0137 46.248V48.456L24.5017 48.52V49H22.4377V48.52L22.8697 48.456V46.248C22.8697 45.9707 22.8511 45.7547 22.8137 45.6C22.7764 45.44 22.7071 45.3253 22.6057 45.256C22.5097 45.1813 22.3711 45.144 22.1897 45.144C21.8857 45.144 21.5604 45.2747 21.2137 45.536V48.448L21.6937 48.52V49H19.6057V48.52L20.0697 48.448V45.312ZM28.3095 49.072C27.9735 49.072 27.7255 48.9947 27.5655 48.84C27.4055 48.6853 27.3255 48.44 27.3255 48.104V45.168H26.8055V44.752C26.8481 44.736 26.9255 44.7093 27.0375 44.672C27.1495 44.6293 27.2348 44.5947 27.2935 44.568C27.3841 44.4987 27.4615 44.3787 27.5255 44.208C27.5735 44.096 27.6615 43.8187 27.7895 43.376H28.4295L28.4615 44.552H29.6855V45.168H28.4695V47.416C28.4695 47.7147 28.4775 47.9253 28.4935 48.048C28.5095 48.1707 28.5441 48.2507 28.5975 48.288C28.6508 48.32 28.7441 48.336 28.8775 48.336C29.0108 48.336 29.1495 48.3227 29.2935 48.296C29.4375 48.264 29.5575 48.2267 29.6535 48.184L29.8055 48.632C29.6561 48.744 29.4375 48.8453 29.1495 48.936C28.8615 49.0267 28.5815 49.072 28.3095 49.072ZM30.6071 43.152L29.9991 43.048V42.616L31.4871 42.44H31.5111L31.7191 42.592L31.7271 44.376L31.6711 45.072C31.8364 44.9227 32.0604 44.784 32.3431 44.656C32.6311 44.528 32.9324 44.464 33.2471 44.464C33.5831 44.464 33.8444 44.528 34.0311 44.656C34.2178 44.7787 34.3484 44.968 34.4231 45.224C34.4978 45.48 34.5351 45.8213 34.5351 46.248V48.448L35.0471 48.52V49H32.9431V48.52L33.4071 48.448V46.248C33.4071 45.9707 33.3884 45.7547 33.3511 45.6C33.3138 45.4453 33.2444 45.3307 33.1431 45.256C33.0471 45.1813 32.9031 45.144 32.7111 45.144C32.5458 45.144 32.3751 45.184 32.1991 45.264C32.0284 45.3387 31.8764 45.4293 31.7431 45.536V48.448L32.2311 48.52V49H30.1591V48.52L30.6071 48.456V43.152ZM37.6065 49.088C36.9025 49.088 36.3771 48.8827 36.0305 48.472C35.6891 48.056 35.5185 47.4907 35.5185 46.776C35.5185 46.296 35.6065 45.88 35.7825 45.528C35.9638 45.176 36.2171 44.9067 36.5425 44.72C36.8678 44.5333 37.2438 44.44 37.6705 44.44C38.2038 44.44 38.6145 44.5813 38.9025 44.864C39.1905 45.1413 39.3398 45.5387 39.3505 46.056C39.3505 46.408 39.3291 46.6693 39.2865 46.84H36.6865C36.7078 47.3253 36.8225 47.704 37.0305 47.976C37.2385 48.2427 37.5345 48.376 37.9185 48.376C38.1265 48.376 38.3398 48.3413 38.5585 48.272C38.7825 48.2027 38.9585 48.12 39.0865 48.024L39.2865 48.464C39.1425 48.6187 38.9078 48.7627 38.5825 48.896C38.2625 49.024 37.9371 49.088 37.6065 49.088ZM38.2305 46.36C38.2411 46.2107 38.2465 46.096 38.2465 46.016C38.2465 45.3067 38.0091 44.952 37.5345 44.952C37.2731 44.952 37.0705 45.056 36.9265 45.264C36.7825 45.472 36.7025 45.8373 36.6865 46.36H38.2305ZM41.8873 48.52L42.3353 48.448V45.312L41.8233 45.168V44.616L43.1513 44.448L43.2473 44.512L43.3673 44.776V45.112C43.5433 44.9413 43.794 44.792 44.1193 44.664C44.45 44.5307 44.7353 44.464 44.9753 44.464C45.2633 44.464 45.4953 44.512 45.6713 44.608C45.8527 44.704 45.9887 44.8533 46.0793 45.056C46.2553 44.896 46.4873 44.7573 46.7753 44.64C47.0633 44.5227 47.346 44.464 47.6233 44.464C48.098 44.464 48.434 44.6027 48.6313 44.88C48.8287 45.1573 48.9273 45.6107 48.9273 46.24V48.448L49.4473 48.52V49H47.3753V48.52L47.7913 48.448V46.272C47.7913 45.856 47.7407 45.5653 47.6393 45.4C47.5433 45.2293 47.3567 45.144 47.0793 45.144C46.93 45.144 46.7753 45.1787 46.6153 45.248C46.4607 45.312 46.322 45.392 46.1993 45.488C46.2367 45.6907 46.2553 45.944 46.2553 46.248V48.448L46.7513 48.52V49H44.6633V48.52L45.1033 48.448V46.248C45.1033 45.9707 45.0847 45.7547 45.0473 45.6C45.0153 45.44 44.9513 45.3253 44.8553 45.256C44.7593 45.1813 44.6207 45.144 44.4393 45.144C44.2687 45.144 44.098 45.184 43.9273 45.264C43.762 45.3387 43.6127 45.4293 43.4793 45.536V48.448L43.9513 48.52V49H41.8873V48.52ZM49.9889 46.784C49.9889 46.2827 50.0876 45.856 50.2849 45.504C50.4876 45.152 50.7569 44.888 51.0929 44.712C51.4289 44.5307 51.7942 44.44 52.1889 44.44C52.8609 44.44 53.3782 44.648 53.7409 45.064C54.1089 45.4747 54.2929 46.0347 54.2929 46.744C54.2929 47.2507 54.1916 47.6827 53.9889 48.04C53.7916 48.392 53.5249 48.656 53.1889 48.832C52.8582 49.0027 52.4929 49.088 52.0929 49.088C51.4262 49.088 50.9089 48.8827 50.5409 48.472C50.1729 48.056 49.9889 47.4933 49.9889 46.784ZM52.1569 48.568C52.7596 48.568 53.0609 47.9867 53.0609 46.824C53.0609 46.216 52.9889 45.7547 52.8449 45.44C52.7009 45.12 52.4662 44.96 52.1409 44.96C51.5222 44.96 51.2129 45.5413 51.2129 46.704C51.2129 47.312 51.2876 47.776 51.4369 48.096C51.5916 48.4107 51.8316 48.568 52.1569 48.568ZM55.0202 48.52L55.4682 48.448V45.312L54.9562 45.168V44.616L56.2842 44.448L56.3802 44.512L56.5002 44.776V45.112C56.6762 44.9413 56.9268 44.792 57.2522 44.664C57.5828 44.5307 57.8682 44.464 58.1082 44.464C58.3962 44.464 58.6282 44.512 58.8042 44.608C58.9855 44.704 59.1215 44.8533 59.2122 45.056C59.3882 44.896 59.6202 44.7573 59.9082 44.64C60.1962 44.5227 60.4788 44.464 60.7562 44.464C61.2308 44.464 61.5668 44.6027 61.7642 44.88C61.9615 45.1573 62.0602 45.6107 62.0602 46.24V48.448L62.5802 48.52V49H60.5082V48.52L60.9242 48.448V46.272C60.9242 45.856 60.8735 45.5653 60.7722 45.4C60.6762 45.2293 60.4895 45.144 60.2122 45.144C60.0628 45.144 59.9082 45.1787 59.7482 45.248C59.5935 45.312 59.4548 45.392 59.3322 45.488C59.3695 45.6907 59.3882 45.944 59.3882 46.248V48.448L59.8842 48.52V49H57.7962V48.52L58.2362 48.448V46.248C58.2362 45.9707 58.2175 45.7547 58.1802 45.6C58.1482 45.44 58.0842 45.3253 57.9882 45.256C57.8922 45.1813 57.7535 45.144 57.5722 45.144C57.4015 45.144 57.2308 45.184 57.0602 45.264C56.8948 45.3387 56.7455 45.4293 56.6122 45.536V48.448L57.0842 48.52V49H55.0202V48.52ZM65.1377 49.088C64.4337 49.088 63.9084 48.8827 63.5617 48.472C63.2204 48.056 63.0497 47.4907 63.0497 46.776C63.0497 46.296 63.1377 45.88 63.3137 45.528C63.4951 45.176 63.7484 44.9067 64.0737 44.72C64.3991 44.5333 64.7751 44.44 65.2017 44.44C65.7351 44.44 66.1457 44.5813 66.4337 44.864C66.7217 45.1413 66.8711 45.5387 66.8817 46.056C66.8817 46.408 66.8604 46.6693 66.8177 46.84H64.2177C64.2391 47.3253 64.3537 47.704 64.5617 47.976C64.7697 48.2427 65.0657 48.376 65.4497 48.376C65.6577 48.376 65.8711 48.3413 66.0897 48.272C66.3137 48.2027 66.4897 48.12 66.6177 48.024L66.8177 48.464C66.6737 48.6187 66.4391 48.7627 66.1137 48.896C65.7937 49.024 65.4684 49.088 65.1377 49.088ZM65.7617 46.36C65.7724 46.2107 65.7777 46.096 65.7777 46.016C65.7777 45.3067 65.5404 44.952 65.0657 44.952C64.8044 44.952 64.6017 45.056 64.4577 45.264C64.3137 45.472 64.2337 45.8373 64.2177 46.36H65.7617ZM67.9682 45.312L67.4562 45.168V44.616L68.7842 44.448H68.8082L69.0082 44.608V44.92L69.0002 45.112C69.1868 44.936 69.4295 44.784 69.7282 44.656C70.0268 44.528 70.3282 44.464 70.6322 44.464C70.9575 44.464 71.2108 44.5253 71.3922 44.648C71.5788 44.7653 71.7122 44.952 71.7922 45.208C71.8722 45.464 71.9122 45.8107 71.9122 46.248V48.456L72.4002 48.52V49H70.3362V48.52L70.7682 48.456V46.248C70.7682 45.9707 70.7495 45.7547 70.7122 45.6C70.6748 45.44 70.6055 45.3253 70.5042 45.256C70.4082 45.1813 70.2695 45.144 70.0882 45.144C69.7842 45.144 69.4588 45.2747 69.1122 45.536V48.448L69.5922 48.52V49H67.5042V48.52L67.9682 48.448V45.312ZM74.3095 49.072C73.9735 49.072 73.7255 48.9947 73.5655 48.84C73.4055 48.6853 73.3255 48.44 73.3255 48.104V45.168H72.8055V44.752C72.8481 44.736 72.9255 44.7093 73.0375 44.672C73.1495 44.6293 73.2348 44.5947 73.2935 44.568C73.3841 44.4987 73.4615 44.3787 73.5255 44.208C73.5735 44.096 73.6615 43.8187 73.7895 43.376H74.4295L74.4615 44.552H75.6855V45.168H74.4695V47.416C74.4695 47.7147 74.4775 47.9253 74.4935 48.048C74.5095 48.1707 74.5441 48.2507 74.5975 48.288C74.6508 48.32 74.7441 48.336 74.8775 48.336C75.0108 48.336 75.1495 48.3227 75.2935 48.296C75.4375 48.264 75.5575 48.2267 75.6535 48.184L75.8055 48.632C75.6561 48.744 75.4375 48.8453 75.1495 48.936C74.8615 49.0267 74.5815 49.072 74.3095 49.072Z" fill="#C5C1BE"/>
</svg>
